<svg width="37" height="36" viewBox="0 0 37 36" fill="none" xmlns="http://www.w3.org/2000/svg">
<mask id="mask0_265_309" style="mask-type:alpha" maskUnits="userSpaceOnUse" x="0" y="0" width="37" height="36">
<rect x="0.333496" width="36" height="36" fill="#D9D9D9"/>
</mask>
<g mask="url(#mask0_265_309)">
<path d="M5.5835 30.2306V10.7306H11.5835V4.73062H25.0835V16.7306H31.0835V30.2306H20.5835V24.2306H16.0835V30.2306H5.5835ZM7.0835 28.7306H11.5835V24.2306H7.0835V28.7306ZM7.0835 22.7306H11.5835V18.2306H7.0835V22.7306ZM7.0835 16.7306H11.5835V12.2306H7.0835V16.7306ZM13.0835 22.7306H17.5835V18.2306H13.0835V22.7306ZM13.0835 16.7306H17.5835V12.2306H13.0835V16.7306ZM13.0835 10.7306H17.5835V6.23062H13.0835V10.7306ZM19.0835 22.7306H23.5835V18.2306H19.0835V22.7306ZM19.0835 16.7306H23.5835V12.2306H19.0835V16.7306ZM19.0835 10.7306H23.5835V6.23062H19.0835V10.7306ZM25.0835 28.7306H29.5835V24.2306H25.0835V28.7306ZM25.0835 22.7306H29.5835V18.2306H25.0835V22.7306Z" fill="#244DA8"/>
</g>
</svg>
