<svg width="30" height="30" viewBox="0 0 30 30" fill="none" xmlns="http://www.w3.org/2000/svg">
<mask id="mask0_287_56" style="mask-type:alpha" maskUnits="userSpaceOnUse" x="0" y="0" width="30" height="30">
<rect width="30" height="30" fill="#D9D9D9"/>
</mask>
<g mask="url(#mask0_287_56)">
<path d="M13.2694 20.0962H8.84625C7.43625 20.0962 6.23438 19.5995 5.24063 18.6059C4.24687 17.6124 3.75 16.4108 3.75 15.0012C3.75 13.5917 4.24687 12.3897 5.24063 11.3953C6.23438 10.4009 7.43625 9.90375 8.84625 9.90375H13.2694V11.1537H8.84625C7.78854 11.1537 6.88302 11.5304 6.12969 12.2837C5.37656 13.0369 5 13.9423 5 15C5 16.0577 5.37656 16.9631 6.12969 17.7162C6.88302 18.4696 7.78854 18.8462 8.84625 18.8462H13.2694V20.0962ZM10.625 15.625V14.375H19.375V15.625H10.625ZM16.7306 20.0962V18.8462H21.1537C22.2115 18.8462 23.117 18.4696 23.8703 17.7162C24.6234 16.9631 25 16.0577 25 15C25 13.9423 24.6234 13.0369 23.8703 12.2837C23.117 11.5304 22.2115 11.1537 21.1537 11.1537H16.7306V9.90375H21.1537C22.5637 9.90375 23.7656 10.4005 24.7594 11.3941C25.7531 12.3876 26.25 13.5892 26.25 14.9987C26.25 16.4083 25.7531 17.6103 24.7594 18.6047C23.7656 19.5991 22.5637 20.0962 21.1537 20.0962H16.7306Z" fill="#12295B"/>
</g>
</svg>
