<svg width="52" height="52" viewBox="0 0 52 52" fill="none" xmlns="http://www.w3.org/2000/svg">
<rect width="52" height="52" rx="26" fill="#12295B"/>
<mask id="mask0_348_62" style="mask-type:alpha" maskUnits="userSpaceOnUse" x="12" y="12" width="28" height="28">
<rect x="12" y="12" width="28" height="28" fill="#D9D9D9"/>
</mask>
<g mask="url(#mask0_348_62)">
<path d="M18.5513 35.3334C18.0142 35.3334 17.5658 35.1535 17.2061 34.7938C16.8464 34.434 16.6665 33.9857 16.6665 33.4486V18.5514C16.6665 18.0144 16.8464 17.566 17.2061 17.2063C17.5658 16.8465 18.0142 16.6667 18.5513 16.6667H26.0223V17.8334H18.5513C18.3716 17.8334 18.207 17.9081 18.0575 18.0576C17.9079 18.2072 17.8332 18.3718 17.8332 18.5514V33.4486C17.8332 33.6283 17.9079 33.7929 18.0575 33.9424C18.207 34.0919 18.3716 34.1667 18.5513 34.1667H26.0223V35.3334H18.5513ZM31.2049 30.1283L30.3859 29.2891L33.0917 26.5834H22.7241V25.4167H33.0917L30.3859 22.7109L31.2049 21.8718L35.3332 26L31.2049 30.1283Z" fill="white"/>
</g>
</svg>
