<svg width="36" height="36" viewBox="0 0 36 36" fill="none" xmlns="http://www.w3.org/2000/svg">
<mask id="mask0_270_215" style="mask-type:alpha" maskUnits="userSpaceOnUse" x="0" y="0" width="36" height="36">
<rect width="36" height="36" fill="#D9D9D9"/>
</mask>
<g mask="url(#mask0_270_215)">
<path d="M15 17.0767C13.7625 17.0767 12.7031 16.636 11.8219 15.7548C10.9406 14.8735 10.5 13.8142 10.5 12.5767C10.5 11.3392 10.9406 10.2798 11.8219 9.39854C12.7031 8.51729 13.7625 8.07666 15 8.07666C16.2375 8.07666 17.2969 8.51729 18.1781 9.39854C19.0594 10.2798 19.5 11.3392 19.5 12.5767C19.5 13.8142 19.0594 14.8735 18.1781 15.7548C17.2969 16.636 16.2375 17.0767 15 17.0767ZM4.5 27.9232V25.4538C4.5 24.7633 4.674 24.1662 5.022 23.6624C5.37025 23.1587 5.86162 22.7577 6.49612 22.4594C7.71337 21.8672 8.96825 21.3797 10.2607 20.9969C11.553 20.6144 13.1327 20.4232 15 20.4232H15.3518C15.4443 20.4232 15.5559 20.4289 15.6866 20.4404C15.5826 20.6979 15.5004 20.9503 15.4399 21.1975C15.3794 21.4445 15.3212 21.6864 15.2655 21.9232H15C13.3212 21.9232 11.8572 22.0952 10.608 22.4392C9.359 22.7834 8.22687 23.2287 7.21162 23.7749C6.75587 24.0154 6.44 24.2673 6.264 24.5305C6.088 24.794 6 25.1018 6 25.4538V26.4232H15.45C15.523 26.6597 15.6124 26.9139 15.7181 27.1859C15.8239 27.4582 15.9402 27.7039 16.0672 27.9232H4.5ZM24.3173 28.6443L24.0983 26.9133C23.6828 26.8268 23.2909 26.6812 22.9226 26.4764C22.5544 26.2717 22.2231 26.0115 21.9289 25.696L20.3018 26.3422L19.6673 25.2633L21.0461 24.2249C20.8809 23.7979 20.7983 23.3575 20.7983 22.9038C20.7983 22.45 20.8809 22.0097 21.0461 21.5827L19.6961 20.4865L20.3306 19.4077L21.9289 20.0827C22.2039 19.7672 22.5303 19.5119 22.908 19.3169C23.286 19.1217 23.6828 18.9808 24.0983 18.8943L24.3173 17.1633H25.5866L25.7768 18.8943C26.1923 18.9808 26.589 19.123 26.967 19.321C27.3447 19.519 27.6711 19.7787 27.9461 20.0999L29.5444 19.4077L30.1789 20.5038L28.8289 21.5999C28.9941 22.0214 29.0768 22.4604 29.0768 22.9169C29.0768 23.3734 28.9941 23.8094 28.8289 24.2249L30.2078 25.2633L29.5732 26.3422L27.9461 25.696C27.6519 26.0115 27.3206 26.2717 26.9524 26.4764C26.5841 26.6812 26.1923 26.8268 25.7768 26.9133L25.5866 28.6443H24.3173ZM24.9255 25.6154C25.672 25.6154 26.3101 25.3497 26.8399 24.8182C27.3696 24.2867 27.6345 23.6477 27.6345 22.9012C27.6345 22.1549 27.3687 21.5168 26.8372 20.9868C26.3057 20.457 25.6669 20.1922 24.9206 20.1922C24.1741 20.1922 23.536 20.4579 23.0063 20.9894C22.4765 21.5209 22.2116 22.1599 22.2116 22.9064C22.2116 23.6527 22.4774 24.2907 23.0089 24.8204C23.5404 25.3504 24.1792 25.6154 24.9255 25.6154ZM15 15.5767C15.825 15.5767 16.5313 15.2829 17.1188 14.6954C17.7063 14.1079 18 13.4017 18 12.5767C18 11.7517 17.7063 11.0454 17.1188 10.4579C16.5313 9.87041 15.825 9.57666 15 9.57666C14.175 9.57666 13.4688 9.87041 12.8813 10.4579C12.2938 11.0454 12 11.7517 12 12.5767C12 13.4017 12.2938 14.1079 12.8813 14.6954C13.4688 15.2829 14.175 15.5767 15 15.5767Z" fill="#244DA8"/>
</g>
</svg>
