<svg width="36" height="36" viewBox="0 0 36 36" fill="none" xmlns="http://www.w3.org/2000/svg">
<mask id="mask0_270_221" style="mask-type:alpha" maskUnits="userSpaceOnUse" x="0" y="0" width="36" height="36">
<rect width="36" height="36" fill="#D9D9D9"/>
</mask>
<g mask="url(#mask0_270_221)">
<path d="M14.8268 23.3655L23.1923 18L14.8268 12.6345V23.3655ZM8.42325 30C7.73275 30 7.15625 29.7688 6.69375 29.3063C6.23125 28.8438 6 28.2673 6 27.5768V8.42325C6 7.73275 6.23125 7.15625 6.69375 6.69375C7.15625 6.23125 7.73275 6 8.42325 6H27.5768C28.2673 6 28.8438 6.23125 29.3063 6.69375C29.7688 7.15625 30 7.73275 30 8.42325V27.5768C30 28.2673 29.7688 28.8438 29.3063 29.3063C28.8438 29.7688 28.2673 30 27.5768 30H8.42325ZM8.42325 28.5H27.5768C27.8078 28.5 28.0194 28.4039 28.2116 28.2116C28.4039 28.0194 28.5 27.8078 28.5 27.5768V8.42325C28.5 8.19225 28.4039 7.98063 28.2116 7.78838C28.0194 7.59613 27.8078 7.5 27.5768 7.5H8.42325C8.19225 7.5 7.98063 7.59613 7.78838 7.78838C7.59613 7.98063 7.5 8.19225 7.5 8.42325V27.5768C7.5 27.8078 7.59613 28.0194 7.78838 28.2116C7.98063 28.4039 8.19225 28.5 8.42325 28.5Z" fill="#244DA8"/>
</g>
</svg>
