<svg width="37" height="36" viewBox="0 0 37 36" fill="none" xmlns="http://www.w3.org/2000/svg">
<mask id="mask0_360_92" style="mask-type:alpha" maskUnits="userSpaceOnUse" x="0" y="0" width="37" height="36">
<rect x="0.666992" width="36" height="36" fill="#D9D9D9"/>
</mask>
<g mask="url(#mask0_360_92)">
<path d="M11.9204 10.6732C11.5046 10.6732 11.1501 10.8187 10.8569 11.1097C10.5636 11.4007 10.417 11.754 10.417 12.1695C10.417 12.5852 10.5625 12.9397 10.8535 13.233C11.1445 13.5265 11.4979 13.6732 11.9136 13.6732C12.3294 13.6732 12.6839 13.5277 12.9771 13.2367C13.2704 12.9455 13.417 12.5921 13.417 12.1766C13.417 11.7609 13.2715 11.4064 12.9805 11.1131C12.6895 10.8199 12.3361 10.6732 11.9204 10.6732ZM11.9204 23.8267C11.5046 23.8267 11.1501 23.9722 10.8569 24.2632C10.5636 24.5545 10.417 24.9079 10.417 25.3234C10.417 25.7391 10.5625 26.0936 10.8535 26.3869C11.1445 26.6801 11.4979 26.8267 11.9136 26.8267C12.3294 26.8267 12.6839 26.6812 12.9771 26.3902C13.2704 26.0992 13.417 25.746 13.417 25.3305C13.417 24.9147 13.2715 24.5602 12.9805 24.267C12.6895 23.9735 12.3361 23.8267 11.9204 23.8267ZM7.82087 6.92285H29.5131C29.8401 6.92285 30.1141 7.03285 30.3351 7.25285C30.5564 7.4726 30.667 7.74485 30.667 8.0696V16.0961C30.667 16.4826 30.5564 16.8004 30.3351 17.0494C30.1141 17.2986 29.8401 17.4232 29.5131 17.4232H7.82087C7.49387 17.4232 7.21987 17.2986 6.99887 17.0494C6.77762 16.8004 6.66699 16.4826 6.66699 16.0961V8.0696C6.66699 7.74485 6.77762 7.4726 6.99887 7.25285C7.21987 7.03285 7.49387 6.92285 7.82087 6.92285ZM8.16699 8.42323V15.9232H29.167V8.42323H8.16699ZM7.82087 20.0767H29.4554C29.8226 20.0767 30.1164 20.1985 30.3366 20.442C30.5569 20.6852 30.667 20.9866 30.667 21.3461V29.1922C30.667 29.6172 30.5569 29.9542 30.3366 30.2032C30.1164 30.4525 29.8226 30.5771 29.4554 30.5771H7.87862C7.51137 30.5771 7.21762 30.4525 6.99737 30.2032C6.77712 29.9542 6.66699 29.6172 6.66699 29.1922V21.3461C6.66699 20.9866 6.76749 20.6852 6.96849 20.442C7.16949 20.1985 7.45362 20.0767 7.82087 20.0767ZM8.16699 21.5767V29.0767H29.167V21.5767H8.16699Z" fill="#244DA8"/>
</g>
</svg>
