<svg width="24" height="25" viewBox="0 0 24 25" fill="none" xmlns="http://www.w3.org/2000/svg">
<mask id="mask0_279_29" style="mask-type:alpha" maskUnits="userSpaceOnUse" x="0" y="0" width="24" height="25">
<rect y="0.5" width="24" height="24" fill="#12295B"/>
</mask>
<g mask="url(#mask0_279_29)">
<path d="M19.4844 20.6538L13.2229 14.3923C12.7229 14.8179 12.1479 15.1474 11.4979 15.3808C10.8479 15.6141 10.1947 15.7308 9.53837 15.7308C7.9367 15.7308 6.58112 15.1763 5.47162 14.0675C4.36228 12.9587 3.80762 11.6039 3.80762 10.0033C3.80762 8.40242 4.36203 7.04651 5.47087 5.93551C6.5797 4.82467 7.93445 4.26926 9.53512 4.26926C11.136 4.26926 12.4919 4.82392 13.6029 5.93326C14.7137 7.04276 15.2691 8.39834 15.2691 10C15.2691 10.6948 15.146 11.3673 14.8999 12.0173C14.6537 12.6673 14.3306 13.223 13.9306 13.6845L20.1921 19.9463L19.4844 20.6538ZM9.53837 14.7308C10.8652 14.7308 11.9854 14.274 12.8989 13.3605C13.8124 12.4472 14.2691 11.327 14.2691 10C14.2691 8.67301 13.8124 7.55284 12.8989 6.63951C11.9854 5.72601 10.8652 5.26926 9.53837 5.26926C8.21137 5.26926 7.0912 5.72601 6.17787 6.63951C5.26437 7.55284 4.80762 8.67301 4.80762 10C4.80762 11.327 5.26437 12.4472 6.17787 13.3605C7.0912 14.274 8.21137 14.7308 9.53837 14.7308Z" fill="#12295B"/>
</g>
</svg>
