<svg width="706" height="117" viewBox="0 0 706 117" fill="none" xmlns="http://www.w3.org/2000/svg">
<path d="M28.0666 91.9068C22.8606 92.2279 17.648 91.3954 12.7978 89.4682C7.94767 87.5409 3.57863 84.5661 0 80.7543L4.49066 76.2745C7.44774 79.6337 11.1265 82.2734 15.2488 83.9938C19.3711 85.7143 23.8289 86.4705 28.2849 86.2052C41.601 86.2052 49.865 79.9398 49.865 68.7873C50.0295 66.5949 49.7031 64.3933 48.9099 62.3442C48.1166 60.295 46.8765 58.4503 45.2808 56.9456C41.819 54.1643 37.5495 52.5917 33.1186 52.4658L23.3264 50.8994C17.8395 50.3056 12.6409 48.1297 8.35759 44.634C6.1644 42.7177 4.43265 40.3265 3.29286 37.6404C2.15308 34.9543 1.63503 32.0435 1.77757 29.127C1.77757 14.9044 11.6632 6.00749 27.8171 6.00749C32.2476 5.82771 36.669 6.54173 40.8201 8.10751C44.9712 9.67329 48.7678 12.0591 51.9855 15.1237L47.9939 19.2902C45.3347 16.6161 42.1434 14.5362 38.6288 13.1866C35.1142 11.837 31.3556 11.2481 27.5989 11.4584C15.3431 11.4584 8.13927 18.0998 8.13927 28.8764C7.98523 30.9268 8.2984 32.9856 9.0549 34.8963C9.81139 36.807 10.9913 38.5194 12.5052 39.9035C16.1798 42.6311 20.4618 44.4162 24.9792 45.1039L34.0541 46.5136C41.9439 47.5788 45.5927 49.1451 49.023 52.0899C51.3792 54.094 53.2579 56.6036 54.5208 59.4337C55.7837 62.2637 56.3986 65.3423 56.3203 68.4427C56.3515 82.8846 45.6238 91.9068 28.0666 91.9068ZM140.333 21.6711L114.855 79.3447H108.618L82.6717 21.6711V91.3429H76.4347V6.75931H82.6717L111.923 71.7948L140.427 6.75931H146.664V91.3429H140.427L140.333 21.6711ZM279.699 52.3405H256.591V91.3429H250.354V6.75931H282.319C295.978 6.75931 306.363 14.6851 306.363 29.3776C306.664 34.9376 304.824 40.401 301.225 44.6353C297.625 48.8696 292.542 51.5501 287.028 52.1212L307.298 91.0924H299.845L279.699 52.3405ZM281.352 12.5549H256.591V46.639H281.352C292.205 46.639 299.876 41.3133 299.876 29.5969C299.876 17.8805 292.298 12.5549 281.446 12.5549H281.352ZM349.741 91.3429H343.504V12.7115H318.556V6.75931H375.032V12.4609H349.741V91.3429ZM416.259 92.0635C412.057 92.1575 407.88 91.3861 403.987 89.7967C400.093 88.2073 396.564 85.8336 393.619 82.8219C390.13 79.3695 387.742 74.9533 386.758 70.1344C384.888 56.2256 384.888 42.1274 386.758 28.2185C387.707 23.3869 390.101 18.9609 393.619 15.5309C396.564 12.5193 400.093 10.1457 403.987 8.55627C407.88 6.96686 412.057 6.19539 416.259 6.28942C432.413 6.28942 444.326 15.6875 447.132 32.9489H430.511C428.733 25.7123 424.274 20.9819 416.352 20.9819C414.39 20.8697 412.427 21.206 410.612 21.9657C408.797 22.7253 407.177 23.8885 405.874 25.3677C402.444 29.033 401.758 32.8236 401.758 49.1765C401.758 65.5293 402.444 69.3199 405.874 72.9852C407.177 74.4644 408.797 75.6276 410.612 76.3873C412.427 77.1469 414.39 77.4833 416.352 77.371C424.274 77.371 428.827 72.6406 430.511 65.404H447.132C444.263 82.4147 432.257 91.9068 416.228 91.9068L416.259 92.0635ZM461.29 91.3429V6.75931H477.6V76.3999H515.677V91.3429H461.29ZM529.087 91.3429V6.75931H545.459V91.3429H529.087ZM593.079 92.0635C588.882 92.1532 584.711 91.3796 580.823 89.7904C576.935 88.2011 573.412 85.8297 570.469 82.8219C566.97 79.3776 564.58 74.9579 563.609 70.1344C561.739 56.2256 561.739 42.1274 563.609 28.2185C564.545 23.3821 566.94 18.9523 570.469 15.5309C573.387 12.5065 576.89 10.1128 580.761 8.49671C584.633 6.88061 588.793 6.07617 592.985 6.13273C609.139 6.13273 621.052 15.5309 623.89 32.7923H607.33C605.553 25.5557 601.093 20.8252 593.172 20.8252C591.209 20.7083 589.245 21.0426 587.429 21.8026C585.613 22.5625 583.994 23.7283 582.694 25.2111C579.264 28.8764 578.546 32.6669 578.546 49.0198C578.546 65.3726 579.264 69.1632 582.694 72.8285C583.994 74.3114 585.613 75.4771 587.429 76.2371C589.245 76.997 591.209 77.3312 593.172 77.2143C601.062 77.2143 605.646 72.484 607.33 65.2474H623.952C621.052 82.4147 609.108 91.9068 592.985 91.9068L593.079 92.0635ZM686.946 91.3429L665.335 52.8104L654.482 65.8425V91.3429H638.11V6.75931H654.482V43.4749L684.077 6.75931H704.004L676.187 40.2795L706 91.3429H686.946ZM217.641 115.277L205.479 81.9448L200.177 83.9184L212.277 117L217.641 115.277ZM176.539 3L171.238 4.94237V94.8202L177.662 92.4394L176.851 11.991L228.119 73.7997L234.543 71.4189L176.539 3Z" fill="black"/>
</svg>
