<svg width="36" height="36" viewBox="0 0 36 36" fill="none" xmlns="http://www.w3.org/2000/svg">
<path d="M33.7107 36L21.7367 23.5125L24.0261 21.125L36 33.6125L33.7107 36ZM3.74078 36L1.45145 33.6125L16.4572 17.9632L10.0534 11.3281L8.87532 12.5567L6.83077 10.3806V14.4291L5.65268 15.6577L0 9.76205L1.17755 8.53399H5.05959L2.98594 6.41469L7.65625 1.54407C8.15372 1.02488 8.69829 0.639894 9.28994 0.389109C9.88195 0.138324 10.5124 0.0129318 11.1814 0.0129318C11.8506 0.0129318 12.4811 0.138324 13.0728 0.389109C13.6644 0.639894 14.2092 1.02488 14.707 1.54407L11.1566 5.2468L13.5208 7.71191L12.3427 8.94054L18.7465 15.5757L24.2628 9.82278C23.9252 9.32384 23.6909 8.81346 23.5597 8.29164C23.4281 7.76983 23.3623 7.19741 23.3623 6.57439C23.3623 4.73755 23.9729 3.1826 25.1939 1.90956C26.4146 0.636519 27.9056 0 29.6669 0C30.04 0 30.4002 0.027363 30.7474 0.0820933C31.0942 0.136824 31.4363 0.247786 31.7734 0.414976L27.3069 5.07361L31.1059 9.03557L35.573 4.37749C35.7416 4.72911 35.8499 5.0858 35.8981 5.44754C35.9466 5.80966 35.9709 6.18528 35.9709 6.57439C35.9709 8.41123 35.3605 9.96617 34.1399 11.2392C32.9192 12.5126 31.4282 13.1493 29.6669 13.1493C29.0695 13.1493 28.5206 13.083 28.0203 12.9503C27.5199 12.8176 27.0305 12.5709 26.5521 12.2103L3.74078 36Z" fill="#244DA8"/>
</svg>
