<svg width="37" height="36" viewBox="0 0 37 36" fill="none" xmlns="http://www.w3.org/2000/svg">
<mask id="mask0_265_321" style="mask-type:alpha" maskUnits="userSpaceOnUse" x="0" y="0" width="37" height="36">
<rect x="0.666992" width="36" height="36" fill="#D9D9D9"/>
</mask>
<g mask="url(#mask0_265_321)">
<path d="M32.167 29.3655V7.67325C32.167 7.404 32.0805 7.18275 31.9075 7.0095C31.7342 6.8365 31.513 6.75 31.2437 6.75H6.09024C5.82099 6.75 5.59974 6.8365 5.42649 7.0095C5.25349 7.18275 5.16699 7.404 5.16699 7.67325V18.75H3.66699V7.67325C3.66699 7.00675 3.90424 6.43625 4.37874 5.96175C4.85324 5.48725 5.42374 5.25 6.09024 5.25H31.2437C31.9102 5.25 32.4807 5.48725 32.9552 5.96175C33.4297 6.43625 33.667 7.00675 33.667 7.67325V27.3173C33.667 27.7963 33.5271 28.2236 33.2474 28.5994C32.9676 28.9754 32.6075 29.2308 32.167 29.3655ZM14.167 20.0768C12.9295 20.0768 11.8701 19.6361 10.9889 18.7549C10.1076 17.8736 9.66699 16.8142 9.66699 15.5767C9.66699 14.3392 10.1076 13.2799 10.9889 12.3986C11.8701 11.5174 12.9295 11.0768 14.167 11.0768C15.4045 11.0768 16.4639 11.5174 17.3451 12.3986C18.2264 13.2799 18.667 14.3392 18.667 15.5767C18.667 16.8142 18.2264 17.8736 17.3451 18.7549C16.4639 19.6361 15.4045 20.0768 14.167 20.0768ZM14.167 18.5768C14.992 18.5768 15.6982 18.283 16.2857 17.6955C16.8732 17.108 17.167 16.4017 17.167 15.5767C17.167 14.7517 16.8732 14.0455 16.2857 13.458C15.6982 12.8705 14.992 12.5767 14.167 12.5767C13.342 12.5767 12.6357 12.8705 12.0482 13.458C11.4607 14.0455 11.167 14.7517 11.167 15.5767C11.167 16.4017 11.4607 17.108 12.0482 17.6955C12.6357 18.283 13.342 18.5768 14.167 18.5768ZM3.66699 30.9232V28.4539C3.66699 27.8346 3.84724 27.2553 4.20774 26.7157C4.56849 26.1765 5.05362 25.7578 5.66312 25.4595C7.07862 24.7808 8.49499 24.2716 9.91224 23.9321C11.3295 23.5929 12.7477 23.4233 14.167 23.4233C15.5862 23.4233 17.0045 23.5929 18.4217 23.9321C19.839 24.2716 21.2554 24.7808 22.6709 25.4595C23.2804 25.7578 23.7655 26.1765 24.1262 26.7157C24.4867 27.2553 24.667 27.8346 24.667 28.4539V30.9232H3.66699ZM5.16699 29.4232H23.167V28.4539C23.167 28.1211 23.0597 27.8086 22.8452 27.5164C22.631 27.2241 22.3344 26.977 21.9554 26.775C20.7209 26.177 19.448 25.7189 18.1367 25.4006C16.8255 25.0824 15.5022 24.9233 14.167 24.9233C12.8317 24.9233 11.5085 25.0824 10.1972 25.4006C8.88599 25.7189 7.61312 26.177 6.37862 26.775C5.99962 26.977 5.70299 27.2241 5.48874 27.5164C5.27424 27.8086 5.16699 28.1211 5.16699 28.4539V29.4232Z" fill="#244DA8"/>
</g>
</svg>
